<?xml version="1.0" encoding="utf-8"?>
<!-- Generator: Adobe Illustrator 28.0.0, SVG Export Plug-In . SVG Version: 6.00 Build 0)  -->
<svg version="1.1" id="Capa_1" xmlns="http://www.w3.org/2000/svg" xmlns:xlink="http://www.w3.org/1999/xlink" x="0px" y="0px"
	 viewBox="0 0 116.6 109.4" style="enable-background:new 0 0 116.6 109.4;" xml:space="preserve">
<style type="text/css">
	.st0{fill:#FFFFFF;}
</style>
<g>
	<path class="st0" d="M29.4,30.5c0,0.4,0,0.7,0,1c0.8,0.2,1.7,0.3,2.4,0.6c2.3,0.9,3.5,2.7,3.6,5.2c0.1,4,0,8,0,11.9
		c0,3.5-2.3,5.8-5.8,5.9c-2.4,0.1-4.9,0-7.3,0c-7.1,0-14.2,0-21.4,0c-0.7,0-0.9-0.1-0.9-0.9C0,39.2,0,24,0,8.9c0-0.2,0-0.5,0-0.8
		c0.3,0,0.7-0.1,1-0.1c9.4,0,18.8,0,28.1,0c3.8,0,6.2,2.4,6.2,6.2c0,3.3,0,6.6,0,9.9c0,3.7-1.7,5.7-5.3,6.4
		C29.8,30.5,29.6,30.5,29.4,30.5z M14.8,37c0,2.2,0,4.2,0,6.3c1.9,0,3.8,0,5.7,0c0-2.1,0-4.2,0-6.3C18.6,37,16.8,37,14.8,37z
		 M14.9,20c0,1.8,0,3.4,0,5.1c1.9,0,3.8,0,5.7,0c0-1.7,0-3.4,0-5.1C18.6,20,16.8,20,14.9,20z"/>
	<path class="st0" d="M29.4,84.7c0,0.4,0,0.7,0,1.1c0.6,0.1,1.1,0.2,1.7,0.3c2.7,0.7,4.3,2.8,4.3,5.6c0,3.9,0,7.7,0,11.6
		c0,3.8-2.3,6.1-6.1,6.1c-5.3,0-10.6,0-15.9,0c-4.1,0-8.3,0-12.4,0c-0.3,0-0.6,0-0.9,0c0-0.3,0-0.6,0-0.9c0-15,0-30.1,0-45.1
		c0-1.1,0-1.1,1.1-1.1c9.4,0,18.8,0,28.1,0c3.8,0,6.1,2.3,6.1,6.1c0,3.4,0,6.8,0,10.1c0,3.5-2,5.8-5.6,6.1
		C29.7,84.6,29.6,84.6,29.4,84.7z M14.8,97.5c2,0,3.8,0,5.7,0c0-2.2,0-4.3,0-6.4c-1.9,0-3.8,0-5.7,0C14.8,93.3,14.8,95.4,14.8,97.5z
		 M20.6,74.2c-2,0-3.8,0-5.7,0c0,1.7,0,3.4,0,5.1c1.9,0,3.8,0,5.7,0C20.6,77.5,20.6,75.9,20.6,74.2z"/>
	<path class="st0" d="M111.9,37.9c1.3,3.3,2.6,6.6,4,9.8c0.5,1.1,0.7,2.2,0.7,3.4c-0.1,1.1,0,2.3,0,3.4c0,0.5-0.1,0.7-0.7,0.7
		c-4.4,0-8.8,0-13.2,0c-0.6,0-0.7-0.4-0.8-0.8c-1.2-4.3-2.4-8.6-3.5-13c-0.2-0.7-0.4-1-1.1-0.9c-0.6,0.1-1.2,0-2,0c0,0.4,0,0.7,0,1
		c0,4.2,0,8.5,0,12.7c0,0.7-0.1,1-0.9,1c-4.3,0-8.6,0-13,0c-0.3,0-0.5,0-0.8,0c0-15.7,0-31.4,0-47.2c0.3,0,0.7,0,1,0
		c9.3,0,18.6,0,28,0c3.9,0,6.2,2.3,6.2,6.2c0,5.9,0,11.7,0,17.6C115.8,34.8,114.7,36.5,111.9,37.9z M95.3,20c0,2.9,0,5.8,0,8.7
		c1.7,0,3.3,0,4.9,0c0.7,0,0.8-0.2,0.8-0.8c0-2.4,0-4.8,0-7.2c0-0.2,0-0.4-0.1-0.7C99.1,20,97.2,20,95.3,20z"/>
	<path class="st0" d="M111.9,92c1.1,2.8,2.1,5.7,3.4,8.4c1.4,2.7,1.2,5.6,1.2,8.5c0,0.6-0.4,0.6-0.8,0.6c-2.7,0-5.4,0-8.2,0
		c-1.5,0-3.1,0-4.6,0c-0.7,0-0.9-0.2-1.1-0.9c-1.2-4.4-2.4-8.9-3.6-13.3c0-0.1-0.1-0.3-0.1-0.5c-0.9,0-1.8,0-2.8,0
		c0,4.8,0,9.6,0,14.5c-5,0-9.8,0-14.7,0c0-15.6,0-31.3,0-47.1c0.3,0,0.6,0,0.9,0c9.4,0,18.8,0,28.1,0c3.9,0,6.1,2.3,6.1,6.1
		c0,5.9,0,11.8,0,17.7C115.8,88.9,114.6,90.7,111.9,92z M95.3,74.2c0,2.9,0,5.8,0,8.7c1.9,0,3.8,0,5.7,0c0-2.9,0-5.8,0-8.7
		C99.1,74.2,97.2,74.2,95.3,74.2z"/>
	<path class="st0" d="M69.8,8c1,6,1.9,12,2.8,17.9c0.8,5.1,1.6,10.1,2.5,15.2c0.7,4.4,1.6,8.8,1.3,13.3c0,0.5,0,0.9-0.7,0.8
		c-4.5,0-9,0-13.6,0c-0.1,0-0.3,0-0.5-0.1c-0.2-2.4-0.5-4.7-0.7-7c0-0.4-0.1-0.9-0.1-1.3c-0.1-1.1-0.1-1.1-1.3-1.1
		c-1.5,0-2.9,0-4.4,0c-0.7,0-0.9,0.3-0.9,0.9c-0.2,2.6-0.5,5.1-0.7,7.7c-0.1,0.7-0.3,0.9-1.1,0.9c-4.3,0-8.5,0-12.8,0
		c-0.7,0-0.9-0.2-1-0.9c-0.3-5,0.8-9.8,1.6-14.7c1-6.6,2.1-13.2,3.2-19.9c0.6-3.6,1.2-7.3,1.7-10.9c0.1-0.7,0.4-0.8,1-0.8
		c6.2,0,12.4,0,18.5,0C66.4,8,68.1,8,69.8,8z M59.7,33.9c-0.5-4.7-0.9-9.3-1.3-13.9c-0.6,0-1.1,0-1.6,0c-0.4,4.6-0.9,9.2-1.3,13.9
		C56.9,33.9,58.2,33.9,59.7,33.9z"/>
	<path class="st0" d="M45.3,62.3c8.2,0,16.3,0,24.5,0c0.3,1.9,0.6,3.8,0.9,5.7c0.8,5.1,1.6,10.2,2.5,15.3c0.9,5.4,1.6,10.8,2.6,16.1
		c0.5,3,0.7,5.9,0.6,8.9c0,0.3,0,0.6,0,0.9c-4.9,0-9.8,0-14.7,0c-0.2-2.3-0.5-4.6-0.7-6.9c0-0.4-0.1-0.9-0.1-1.3
		c-0.2-1.2-0.2-1.2-1.4-1.2c-1.5,0-2.9,0-4.4,0c-0.6,0-0.8,0.2-0.8,0.7c-0.2,2.6-0.5,5.2-0.7,7.8c-0.1,0.8-0.3,1-1.1,1
		c-4.3,0-8.6,0-12.9,0c-0.2,0-0.5,0-0.7,0c0-2.4-0.2-4.7,0-7c0.7-5.2,1.6-10.3,2.5-15.5c0.8-4.9,1.6-9.8,2.4-14.8
		c0.5-3.1,1-6.3,1.5-9.4C45.3,62.6,45.3,62.5,45.3,62.3z M58.4,74.2c-1.6-0.2-1.6-0.2-1.7,1.2c-0.2,2.6-0.5,5.1-0.8,7.6
		c-0.2,1.6-0.3,3.3-0.4,5c1.4,0,2.8,0,4.2,0C59.2,83.3,58.8,78.8,58.4,74.2z"/>
	<path class="st0" d="M57.4,0c3.7,0,7.4,0,11.1,0C69.9,0,70,0.1,70,1.5c0,1.1,0,2.2,0,3.3c0,1-0.5,1.4-1.5,1.3
		c-0.7-0.1-1.3-0.1-2-0.1c-6.7,0-13.3,0-20,0c-1.3,0-1.4-0.1-1.4-1.4c0-1-0.1-2-0.1-3c-0.1-1,0.3-1.5,1.4-1.5C50,0,53.7,0,57.4,0
		C57.4,0,57.4,0,57.4,0z"/>
</g>
</svg>
