<?xml version="1.0" encoding="utf-8"?>
<!-- Generator: Adobe Illustrator 28.0.0, SVG Export Plug-In . SVG Version: 6.00 Build 0)  -->
<svg version="1.1" id="Capa_1" xmlns="http://www.w3.org/2000/svg" xmlns:xlink="http://www.w3.org/1999/xlink" x="0px" y="0px"
	 viewBox="0 0 171.5 51.8" style="enable-background:new 0 0 171.5 51.8;" xml:space="preserve">
<style type="text/css">
	.st0{fill:#FFFFFF;}
</style>
<g>
	<path class="st0" d="M95.8,16c1.1,0,2,0,3,0c0.1,2.1,0.4,4.3-0.7,6.2c-0.6,1.1-1.5,1.8-2.7,2c-1.3,0.2-2.7,0.3-4,0.2
		c-2.8-0.3-4.3-2.2-4.4-5.1c0-2.5,0-5,0-7.5c0-1.3,0-1.3-1.2-1.3c-0.8,0-1.2-0.3-1.1-1.1c0-0.4,0-0.8,0-1.2c0-0.5,0.2-0.7,0.7-0.8
		c1.8-0.2,2.7-1.5,3.3-3c0.3-0.8,0.4-1.6,0.6-2.5c0.1-0.6,0.3-1,1.1-0.9c3.3,0.1,2.7-0.4,2.7,2.6c0,0.9,0,1.8,0,2.8
		c0,1.1,0,1.1,1.1,1.1c0.8,0,1.6,0,2.3,0c0.6,0,0.8,0.2,0.9,0.9c0.2,2.1,0.1,2.2-2,2.2c-0.7,0-1.5,0-2.2,0c-0.1,0.4-0.1,0.7-0.1,1
		c0,2.7,0,5.4,0,8.1c0,1.1,0.3,1.6,1.1,1.6c0.9,0,1.4-0.5,1.5-1.5C95.8,18.4,95.8,17.2,95.8,16z"/>
	<path class="st0" d="M144.5,10.1c0-0.3,0-0.7,0-1c0-1.5,0-1.4,1.4-1.9c1.2-0.4,2-1.3,2.4-2.4c0.4-1,0.6-2.1,0.8-3.1
		c0.1-0.6,0.4-0.8,1-0.8c0.6,0,1.3,0,1.9,0c0.7,0,0.9,0.2,0.9,0.9c0,1.5,0,3,0,4.4c0,1.1,0,1.1,1.2,1.2c0.8,0,1.6,0,2.3,0
		c0.5,0,0.8,0.2,0.8,0.8c0,0.1,0,0.1,0,0.2c0.1,2,0.1,2-1.9,2c-0.8,0-1.5,0-2.3,0c0,0.5-0.1,0.8-0.1,1c0,2.7,0,5.3,0,8
		c0,1.2,0.3,1.6,1.1,1.6c0.9,0.1,1.4-0.4,1.6-1.5c0.1-0.7,0.1-1.5,0.1-2.2c0-0.5,0-0.9,0-1.4c1.1,0,2,0,3.1,0
		c-0.1,1.8-0.1,3.5-0.4,5.1c-0.3,1.7-1.5,2.8-3.1,3.1c-1.5,0.3-3.1,0.3-4.6,0.1c-2.1-0.3-3.4-1.8-3.6-3.9c-0.2-2-0.1-4.1-0.2-6.1
		c0-0.4,0-0.8,0-1.2c0-0.7,0.2-1.6-0.1-2.2C146.4,10.4,145.4,10.4,144.5,10.1z"/>
	<path class="st0" d="M125.7,9.5c-1.2-0.2-1.9,0.1-2.5,0.9c-0.8,1-1.1,2.1-1.1,3.3c0,1.8,0,3.7,0,5.5c0,1.5,0.2,1.7,1.8,1.8
		c0.3,0,0.5,0.1,0.7,0.1c0.1,0.1,0.1,0.2,0.1,0.3c0.4,2.3,0.2,2.5-2.1,2.5c-2.7,0-5.5,0-8.2,0c-1.1,0-1.1-0.1-1.1-1.1
		c0-0.3,0-0.5,0-0.8c-0.1-0.8,0.2-1.1,1.1-1.1c1.4,0,1.6-0.2,1.6-1.6c0-2.4,0-4.9,0-7.3c0-1.4-0.2-1.6-1.6-1.6
		c-1.1-0.1-1.1-0.1-1.1-1.2c0-1.9,0-1.9,1.9-1.9c1.7,0,3.5,0,5.2,0c0.4,0,0.9,0.1,1.4,0.1c0,0.7,0,1.4,0,2.3
		c0.5-0.7,0.9-1.2,1.3-1.6c1.2-1.3,2.9-1.6,4.5-0.9c1.6,0.7,2.6,2.3,2.5,4c-0.2,2.2-2.1,3.5-4.2,2.8c-0.9-0.3-1.5-0.9-1.6-1.9
		c-0.1-0.9,0.2-1.7,1-2.2C125.3,9.8,125.4,9.7,125.7,9.5z"/>
	<path class="st0" d="M52.5,22c-1.3,1.3-2.7,2.1-4.4,2.3c-1.7,0.2-3.4,0.3-5-0.6c-2.5-1.5-2.7-5.4-0.2-6.9c1.3-0.8,2.8-1.2,4.2-1.7
		c1.2-0.4,2.5-0.7,3.7-1.2c1.4-0.5,1.8-1.3,1.6-2.8c-0.1-1.3-0.8-2.1-2.1-2.2c-1.3-0.1-2.6-0.1-4,0.1c-0.5,0-1,0.4-1.7,0.8
		c1,0.5,1.5,1.1,1.5,2.1c-0.1,1-0.5,1.6-1.5,1.8c-1,0.3-1.8-0.1-2.3-0.9c-0.7-1.3-0.4-2.9,0.7-4c1.3-1.2,3-1.6,4.7-1.8
		c1.6-0.2,3.2-0.1,4.8,0.5c1.6,0.6,2.6,1.7,2.8,3.4c0.2,1.3,0.2,2.7,0.2,4.1c0,1.9,0,3.8,0,5.8c0,0.3-0.1,0.6,0.1,0.9
		c0.2,0.4,0.5,0.9,0.7,0.9c0.4,0,1-0.3,1.1-0.6c0.3-0.9,0.4-1.8,0.4-2.7c0-0.8,0.3-1.1,1-1c0.6,0,0.9,0.3,0.8,0.9
		c-0.1,1-0.1,1.9-0.3,2.9c-0.4,1.6-1.4,2.4-3,2.6c-1.9,0.2-2.9-0.3-3.7-1.9C52.8,22.4,52.7,22.3,52.5,22z M52.4,15.2
		c-2,0.8-3.9,1.6-5.8,2.3c-0.3,0.1-0.6,0.3-0.8,0.5c-0.9,0.7-1.2,1.6-0.8,2.8c0.3,1,1,1.6,2.1,1.7c2.3,0.3,5-1.6,5.4-3.8
		C52.5,17.7,52.4,16.5,52.4,15.2z"/>
	<path class="st0" d="M142.2,21c0.2,0.2,0.2,0.3,0.2,0.3c0.4,2.6,0.3,2.7-2.3,2.7c-1.7,0-3.4,0-5.1,0c-1.5,0-1.5,0-1.5-1.5
		c0-3.3,0-6.6,0-9.9c0-0.3,0-0.6,0-0.9c-0.1-1.1-0.2-1.2-1.3-1.4c-0.4,0-1.2-0.2-1.2-0.4c-0.1-0.8-0.1-1.6,0-2.4
		c0-0.1,0.5-0.2,0.8-0.2c3.2,0,6.4,0,9.6,0c0.7,0,1.1,0.2,1,1c0,0.2,0,0.4,0,0.6c0,1.4,0,1.4-1.4,1.5c-1,0.1-1.3,0.3-1.4,1.3
		c0,2.6,0,5.2,0,7.9c0,1,0.4,1.3,1.4,1.4C141.4,21,141.8,21,142.2,21z"/>
	<path class="st0" d="M111.1,21.1C111.2,21.2,111.2,21.2,111.1,21.1c0.5,2.7,0.4,2.9-2.2,2.9c-1.8,0-3.5,0-5.3,0
		c-1.2,0-1.3,0-1.3-1.2c0-3.5,0-6.9,0-10.4c0-1.7-0.1-1.8-1.8-1.9c-0.7,0-1-0.3-0.9-1c0-0.6,0-1.2,0-1.9c3.9,0,7.6,0,11.4,0
		c0,0.5,0.1,0.9,0.1,1.3c0,1.5,0.2,1.7-1.5,1.7c-0.8,0-1.2,0.4-1.2,1.2c0,2.7,0,5.4,0,8.1c0,1,0.3,1.2,1.3,1.3
		C110.2,21,110.6,21.1,111.1,21.1C111.1,21.1,111.1,21.1,111.1,21.1z"/>
	<path class="st0" d="M171.5,21.2c0,0.9,0,1.7,0,2.6c-0.4,0-0.7,0.1-1.1,0.1c-3,0-6.1,0-9.1,0c-1.1,0-1.2-0.1-1.2-1.2
		c0-0.2,0-0.4,0-0.7c-0.1-0.7,0.2-1,1-1c1.6,0,1.8-0.3,1.9-1.9c0-2.4,0-4.7,0-7.1c0-1.4-0.3-1.7-1.7-1.8c-0.4,0-1.1-0.2-1.1-0.4
		c-0.1-0.7,0-1.4,0-2.1c0-0.1,0.4-0.2,0.7-0.2c2.4,0,4.7,0,7.1,0c0.9,0,0.8,0.6,0.8,1.1c0,2.9,0,5.8,0,8.7c0,0.2,0,0.4,0,0.7
		C168.8,20.8,168.8,20.8,171.5,21.2z"/>
	<path class="st0" d="M69.4,17.3c0.4,0,0.6-0.1,0.9-0.1c0.3,0,0.6,0,1.1,0.1c0.1,2.1,0.1,4.2-1.3,6c-1,1.2-3.7,1.6-5.5,0.9
		c-1.4-0.5-2.3-1.9-2.3-3.7c0-3.3,0-6.7,0-10c0-1.2,0-1.2-1.2-1.2c-0.3,0-0.6,0-0.9,0c-0.5,0-0.9,0-0.9-0.7c0-0.6-0.1-1.1,0.6-1.3
		c1.8-0.5,2.6-1.9,3-3.5c0.2-0.7,0.4-1.5,0.4-2.3c0-1,0.6-0.9,1.3-0.9c0.7,0,0.9,0.4,0.8,1c0,1.6,0,3.1,0,4.7c0,1.1,0,1.1,1.1,1.1
		c1,0,1.9,0,2.9,0c0.8,0,1,0.3,1,1c0,0.8-0.5,0.9-1.1,0.9c-1,0-2.1,0-3.1,0c-0.6,0-0.8,0.2-0.8,0.9c0,3.5,0,7.1,0,10.6
		c0,0.8,0.2,1.5,1.1,1.8c0.8,0.3,1.8,0,2.2-0.8c0.4-0.7,0.5-1.4,0.6-2.2C69.5,18.9,69.4,18.1,69.4,17.3z"/>
	<path class="st0" d="M38.8,9.4c-1.3-1-3.2-0.8-4.5,0.5c-1.5,1.5-2.1,3.3-2.2,5.3c-0.1,1.8,0,3.5,0,5.3c0,1.1,0.5,1.5,1.5,1.6
		c0.4,0,0.7,0,1.1,0c0.7-0.1,1,0.2,1,0.9c0,0.8-0.4,0.9-1,0.9c-2.8,0-5.7,0-8.5,0c-0.7,0-1-0.2-1-1c0-0.8,0.4-0.9,1-0.9
		c0.4,0,0.8,0,1.2,0c1.1,0,1.4-0.4,1.4-1.5c0-3.3,0-6.6,0-9.9c0-1.2-0.3-1.5-1.5-1.5c-0.3,0-0.5,0-0.8,0c-1.6,0-1.6,0-1.4-1.8
		c0.3,0,0.7-0.1,1-0.1c1.6,0,3.1,0,4.7,0C32,7.4,32,7.5,32,8.5c0,0.5,0,0.9,0.2,1.4c0.4-0.5,0.7-1,1.2-1.4c1.4-1.4,3.1-2,5-1.4
		c2,0.6,3,2.6,2.4,4.6c-0.3,1-1.1,1.5-2.1,1.5c-1-0.1-1.8-0.7-1.9-1.5c-0.1-1,0.4-1.6,1.5-2C38.5,9.5,38.6,9.5,38.8,9.4z"/>
	<path class="st0" d="M10.3,17.3c0.7,0,1.2,0,1.8,0c0.2,1.8,0.2,3.4-0.6,5c-0.5,1-1.3,1.7-2.4,1.9c-0.9,0.2-1.8,0.2-2.6,0.2
		C4.3,24.2,3,22.7,3,20.4c0-3.2,0-6.4,0-9.5c0-1.5,0-1.5-1.5-1.5C0.1,9.3-0.2,9,0.1,7.9c0-0.2,0.2-0.4,0.4-0.5
		c2.8-0.9,3.3-3.2,3.6-5.7c0-0.1,0-0.1,0-0.2c0-0.8,0.5-0.9,1.2-0.9c0.8,0,0.9,0.3,0.9,1c0,1.5,0,3,0,4.5c0,1.2,0,1.2,1.3,1.2
		c0.9,0,1.7,0,2.6,0c0.6,0,1.3-0.1,1.2,0.9c0,0.9-0.1,1-1.3,1c-0.9,0-1.8,0-2.8,0c-0.7,0-1,0.2-1,1c0,3.4,0,6.9,0,10.3
		c0,1.3,0.4,1.9,1.3,2c1,0.2,2.1-0.4,2.4-1.5c0.2-0.7,0.3-1.4,0.4-2.2C10.3,18.4,10.3,17.9,10.3,17.3z"/>
	<path class="st0" d="M75.7,16.9c0-1.8,0-3.6,0-5.4c0-2-0.1-2.2-2.1-2.2c-0.2,0-0.4,0-0.6,0c-0.7,0.1-1.1-0.2-1.1-1
		c0-0.8,0.5-0.9,1.1-0.9c2.8,0,5.7,0,8.5,0c0.7,0,1.1,0.2,1.1,1c0,0.8-0.4,0.9-1.1,0.9c-0.5,0-1,0-1.6,0c-0.7,0-1.1,0.4-1.1,1.1
		c0,3.5,0,7,0,10.5c0,0.8,0.4,1.2,1.2,1.2c0.6,0,1.1,0,1.7,0c0.6,0,0.9,0.2,0.9,0.8c0,0.6-0.1,1-0.8,1c-1.8,0-3.5,0-5.3,0
		c-0.7,0-0.8-0.4-0.8-1C75.7,20.9,75.7,18.9,75.7,16.9z"/>
	<path class="st0" d="M13,9.2c0-0.7,0-1.2,0-1.7c3.5,0,6.9,0,10.3,0c0.3,1.7,0.2,1.8-1.3,1.8c-2.2,0-2.3,0.1-2.3,2.3
		c0,2.9,0,5.8,0,8.6c0,1.6,0.3,1.9,1.9,1.9c0.3,0,0.6,0,0.9,0c0.7-0.1,1,0.2,1,1c0,0.8-0.4,0.9-1,0.9c-1.6,0-3.2,0-4.8,0
		c-1.1,0-1.1-0.1-1.1-1.1c0-3.9,0-7.8,0-11.6c0-1.8-0.1-1.9-1.9-1.9C14.1,9.3,13.6,9.3,13,9.2z"/>
	<path class="st0" d="M74.5,41.3c0.4-0.3,1-0.6,1.8-0.3c0.7,0.3,0.6,1,0.6,1.7c0,1,0,1.9,0,2.9c0,1,0,1.8,1.1,2.3
		c-1.1,1-2,0.9-2.8-0.2c-0.8,0.3-1.6,0.7-2.4,0.8c-1.3,0.1-2.1-0.7-2.1-2c0-0.7,0.1-1.5,0-2.2c-0.1-0.9-0.3-1.8-0.4-3
		c0.4-0.4,1-0.6,1.8-0.3c0.7,0.3,0.7,1,0.6,1.6c0,1-0.1,2.1-0.1,3.1c0,1,0.3,1.4,1.1,1.3c0.9,0,1.3-0.4,1.3-1.4c0-0.5,0.1-1,0-1.4
		C74.8,43.3,74.7,42.4,74.5,41.3z"/>
	<path class="st0" d="M98.8,48.3c-0.6,0-1.2,0-2,0c0-0.9,0-1.8,0-2.6c0-0.7,0-1.5,0-2.2c0-0.6-0.2-1.1-0.9-1.1
		c-0.8,0-1.4,0.5-1.4,1.2c0,0.8,0,1.6,0,2.3c0,0.8,0,1.5,0,2.4c-0.2,0.1-0.4,0.1-0.6,0.1c-1.3,0.1-1.4,0-1.4-1.3
		c0-1.1,0.1-2.1,0-3.2c0-0.8-0.3-1.5-0.4-2.4c0.9-0.8,1.6-0.8,2.6,0.3c0.4-0.2,0.8-0.5,1.2-0.7c1.5-0.6,2.9,0.3,2.9,1.8
		C98.9,44.5,98.8,46.3,98.8,48.3z"/>
	<path class="st0" d="M102.4,28.4c0-1.8,1.3-3.2,3.1-3.2c1.8,0,3.1,1.3,3.2,3c0,1.8-1.3,3.2-3.1,3.2
		C103.8,31.5,102.4,30.2,102.4,28.4z"/>
	<path class="st0" d="M136.8,25.3c1.8,0.1,3.1,1.4,3,3.2c-0.1,1.7-1.5,3-3.2,3c-1.8,0-3.2-1.5-3.1-3.2
		C133.6,26.5,135,25.2,136.8,25.3z"/>
	<path class="st0" d="M112.6,48.5c0,0.8,0,1.6,0,2.4c0,0.5-0.1,0.8-0.7,0.9c-0.6,0-0.8-0.3-0.8-0.9c0-2.5,0-4.9,0-7.4
		c0-0.7-0.2-1.3-0.4-2.1c0.7-0.6,1.1-0.6,2,0.2c2.1-1.3,4.4-0.3,4.5,2.7c0.1,2.5-1.4,4.5-3.9,4.3C113.2,48.5,113,48.5,112.6,48.5z
		 M115.8,44.8c-0.1-0.5-0.1-1.1-0.3-1.5c-0.4-0.5-0.9-1-1.4-1.2c-0.8-0.3-1.3,0.1-1.3,1c0,1.1-0.1,2.3,0,3.4c0,0.3,0.2,0.7,0.5,0.8
		c0.9,0.4,2-0.1,2.3-1.1C115.6,45.9,115.7,45.4,115.8,44.8z"/>
	<path class="st0" d="M13.1,37.7c0.3-0.3,0.9-0.4,1.4-0.1c0.3,0.2,0.4,0.9,0.5,1.4c0.1,0.8,0,1.5,0,2.4c0.3-0.1,0.5-0.1,0.7-0.2
		c1.7-0.5,3,0.1,3.5,1.9c0.4,1.4,0.3,2.8-0.5,4c-0.9,1.4-3,1.9-4.4,1c-0.7-0.4-0.8-1.1-0.8-1.8c0-2,0-3.9,0-5.9
		C13.4,39.6,13.2,38.7,13.1,37.7z M18.2,44.9c-0.2-1.5-0.8-2.5-1.8-2.8c-0.9-0.2-1.4,0.1-1.4,1.1c0,1,0,2.1,0,3.1
		c0,0.6,0.2,1.2,0.8,1.3c0.5,0,1.2-0.2,1.5-0.6C17.8,46.4,17.9,45.6,18.2,44.9z"/>
	<path class="st0" d="M168.8,3.1c0,1.7-1.3,3-3,3c-1.8,0-3.1-1.3-3.1-3c0-1.8,1.3-3,3.1-3C167.6,0,168.8,1.3,168.8,3.1z"/>
	<path class="st0" d="M66.4,44c0-0.4,0-1-0.1-1.5c-0.1-0.3-0.5-0.6-0.7-0.7c-0.3,0-0.7,0.3-0.8,0.6c-0.2,0.6-0.5,0.8-1.1,0.7
		c-0.3-0.1-0.7-0.4-0.7-0.6c0.1-0.4,0.2-1,0.5-1.2c1.2-0.8,2.4-0.8,3.7-0.2c1.1,0.5,1.2,1.5,1.2,2.5c0,0.7,0,1.5,0,2.2
		c0,0.8-0.1,1.6,1.1,1.8c-0.8,1.1-1.7,1.1-2.7,0.3c-0.9,0.2-1.7,0.5-2.5,0.5c-0.9,0-1.6-0.6-1.7-1.4c-0.2-0.9,0.1-1.8,1-2.2
		C64.4,44.5,65.3,44.3,66.4,44z M66.3,45.2c-0.8-0.2-1.4,0-1.7,0.7c-0.1,0.3,0,0.9,0.3,1.1c0.3,0.2,0.9,0.2,1.2,0
		C66.7,46.5,66.4,45.8,66.3,45.2z"/>
	<path class="st0" d="M88.2,44.2c0-0.4,0.1-1,0-1.5c-0.1-0.3-0.4-0.8-0.7-0.8c-0.2-0.1-0.7,0.3-0.9,0.6c-0.2,0.5-0.5,0.7-1,0.7
		c-0.3-0.1-0.7-0.3-0.7-0.5c0-0.4,0.1-0.9,0.4-1.1c1.1-0.9,2.4-0.9,3.7-0.4c1.2,0.4,1.3,1.5,1.3,2.6c0,0.7,0,1.3,0,2
		c0,0.9-0.2,1.9,1.1,2.1c-1,0.9-1.7,0.9-2.8,0.2c-0.7,0.2-1.4,0.5-2.1,0.5c-1.1,0.1-1.9-0.6-2-1.5c-0.2-1,0.3-1.9,1.3-2.3
		C86.5,44.4,87.3,44.3,88.2,44.2z M88,45.1c-1.4,0.2-1.9,0.6-1.7,1.3c0.2,0.6,0.6,0.8,1.2,0.7C88.2,47,88.4,46.4,88,45.1z"/>
	<path class="st0" d="M50.1,46c0.2,0.8-0.1,1.3-0.6,1.7c-1.2,0.9-2.4,1-3.8,0.5c-1.3-0.5-1.8-1.6-1.9-2.9c-0.1-1.2,0.2-2.4,1-3.3
		c0.8-1,2-1.4,3.3-1c1.3,0.3,1.7,1.3,2,2.4c0.1,0.8-0.2,1.1-0.9,1.2c-0.7,0-1.5,0-2.2,0c-1,0-1.3,0.3-0.9,1.3
		c0.4,1.1,1.7,1.6,2.9,0.9C49.2,46.6,49.6,46.3,50.1,46z M45.8,43.7c0.6,0,1,0.1,1.3,0c0.3-0.1,0.6-0.3,0.9-0.5
		c-0.2-0.4-0.4-0.9-0.7-1.1c-0.2-0.1-0.8,0.1-1,0.3C46,42.6,46,43.1,45.8,43.7z"/>
	<path class="st0" d="M27.1,48c-1.3,0.7-1.7,0.7-2.6-0.3c-0.2,0.2-0.4,0.3-0.7,0.5c-0.8,0.5-1.6,0.5-2.4,0.1
		c-0.7-0.4-0.9-1.1-0.8-1.8c0.1-1,0.8-1.5,1.6-1.7c0.7-0.2,1.4-0.2,2.3-0.3c0-0.4,0.1-0.9,0-1.3c-0.2-0.4-0.5-0.9-0.9-1.1
		c-0.5-0.2-0.9,0.1-1.2,0.7c-0.4,0.7-1,0.7-1.2,0.1c-0.1-0.3,0-0.7,0.2-1c0.5-0.7,2.4-0.9,3.5-0.5c1,0.4,1.2,1.2,1.2,2.2
		c0,0.8,0,1.6,0,2.3C25.9,46.6,26,47.5,27.1,48z M24.3,45c-0.7,0.2-1.3,0.4-1.9,0.7c-0.2,0.1-0.4,0.7-0.3,1c0.1,0.2,0.5,0.5,0.8,0.6
		C24.1,47.4,24.6,46.7,24.3,45z"/>
	<path class="st0" d="M51.2,46.4c0.7,0.3,1.3,0.7,1.9,0.9c0.3,0.1,0.7,0.1,1.1,0c0.6-0.2,0.7-0.8,0.2-1.1c-0.5-0.4-1.2-0.5-1.6-0.9
		c-0.6-0.4-1.2-1-1.4-1.6c-0.4-0.9,0.1-2,1-2.4c0.9-0.5,1.8-0.5,2.8-0.2c1.3,0.4,1.4,1.1,0.4,2.1c-0.2-0.2-0.4-0.5-0.6-0.6
		c-0.3-0.2-0.7-0.5-1-0.5c-0.4,0-0.8,0.3-1.2,0.4c0.2,0.3,0.3,0.7,0.6,0.9c0.6,0.4,1.4,0.7,2,1.1c0.7,0.4,1.2,1.1,1.1,2
		c-0.1,0.9-0.6,1.6-1.5,1.9c-1,0.4-2,0.4-2.9-0.2C51.4,47.7,51.1,47.2,51.2,46.4z"/>
	<path class="st0" d="M158.8,48c-1.3,0.8-1.9,0.5-2.6-0.3c-0.3,0.2-0.5,0.4-0.8,0.5c-0.8,0.4-1.6,0.5-2.4-0.1
		c-0.6-0.4-0.9-1.1-0.7-1.9c0.2-0.9,0.8-1.4,1.6-1.6c0.7-0.2,1.4-0.2,2.3-0.3c0-0.5,0-1-0.1-1.5c-0.2-0.4-0.6-0.9-0.9-0.9
		c-0.3-0.1-0.8,0.4-1.2,0.6c-0.3,0.2-0.4,0.5-0.7,0.5c-0.1,0-0.5-0.3-0.5-0.4c0-0.3,0.1-0.8,0.3-1c1-0.8,2.2-0.8,3.4-0.4
		c0.9,0.3,1.2,0.9,1.2,2.2c0,0.5,0,1,0,1.4C157.7,46,157.4,47.3,158.8,48z M156.1,45c-0.6,0.2-1.3,0.3-1.8,0.6
		c-0.3,0.1-0.5,0.7-0.4,1c0.1,0.3,0.5,0.6,0.9,0.6C156,47.4,156.4,46.7,156.1,45z"/>
	<path class="st0" d="M61.9,40.9c-0.1,1.5-1.2,1-2,1.2c0,1.4,0,2.8,0,4.2c0,0.5,0.5,0.7,1,0.6c0.4-0.1,0.8-0.2,1.3-0.3
		c0,0.2,0,0.4,0,0.6c-0.4,0.9-1.3,1.3-2.6,1.2c-1-0.1-1.5-0.6-1.6-1.6c-0.1-0.8,0-1.6,0-2.4c0-1.1,0.3-2.2-0.7-3
		c1.6-1.6,1.6-1.6,2.7-1.5c0,0.3,0.1,0.6,0.1,1C60.6,40.9,61.2,40.9,61.9,40.9z"/>
	<path class="st0" d="M141.6,46.4c-0.2,0.4-0.3,0.8-0.5,1.1c-1.3,1.6-4.1,1.3-5-0.6c-0.8-1.7-0.6-3.3,0.5-4.8c0.7-1,2-1.3,3.2-0.9
		c1.1,0.4,1.5,1.3,1.6,2.3c0.1,0.7-0.1,1.1-0.9,1c-0.9,0-1.7,0-2.6,0c-0.7,0-0.9,0.3-0.8,1c0.3,1.6,1.8,2.3,3.3,1.4
		c0.3-0.2,0.6-0.4,0.9-0.6C141.4,46.3,141.5,46.3,141.6,46.4z M139.9,43.6c-0.1-1.2-0.5-1.6-1.2-1.7c-0.8,0-1.2,0.4-1.3,1.7
		C138.1,43.6,139,43.6,139.9,43.6z"/>
	<path class="st0" d="M128,41.4c-1.2,1.9-2.4,3.8-3.6,5.8c1.4,0.1,2.5,0.4,3.5-0.5c0.5,0.9,0.3,1.6-0.4,1.6c-1.7,0.1-3.5,0-5.5,0
		c1.4-2.1,2.5-4,3.8-6c-1.2-0.2-2.3-0.3-3.2,0.5c-0.6-1.1-0.3-1.8,0.9-1.7c1.3,0,2.6,0.1,3.9,0.1C127.4,41.2,127.6,41.3,128,41.4z"
		/>
	<path class="st0" d="M100.2,41.4c0.5-0.4,0.9-0.8,1.3-1.1c0.3-0.2,0.8-0.4,1.2-0.4c0.2,0,0.3,0.6,0.6,1.1c0.1,0,0.5,0,0.8,0
		c0.3,0,0.6,0,0.9-0.1c0.1,1,0.1,1-2,1.3c0,1.3,0,2.6,0,3.9c0,0.7,0.5,1,1.2,0.9c0.3-0.1,0.6-0.2,1-0.3c0.1,0.1,0.2,0.2,0.2,0.3
		c-0.2,1-1,1.5-2.3,1.4c-1.2,0-1.9-0.4-2-1.5c-0.1-1.1,0-2.2,0-3.3C101.1,42.8,101.1,42,100.2,41.4z"/>
	<path class="st0" d="M134.6,46.7c0.4,1.2,0.1,1.7-1,1.7c-1.6,0-3.2,0-4.7,0c-0.1-0.1-0.1-0.2-0.2-0.3c1.2-1.9,2.4-3.8,3.6-5.8
		c-1.3-0.3-2.3-0.2-3.3,0.5c-0.5-1.3-0.2-1.8,1-1.7c1.5,0,2.9,0.1,4.6,0.2c-1.3,2-2.4,3.9-3.6,5.8C132.4,47.5,133.4,47.4,134.6,46.7
		z"/>
	<path class="st0" d="M81.2,41.6c0.5-0.3,0.9-0.6,1.4-0.8c0.9-0.2,1.6,0.4,1.5,1.1c-0.1,0.7-0.7,1-1.3,0.6c-0.8-0.4-1.4-0.2-1.6,0.7
		c-0.2,0.9-0.1,1.8-0.1,2.6c0,0.7,0,1.5,0,2.3c-0.2,0-0.4,0.1-0.6,0.1c-1.3,0.1-1.4-0.1-1.4-1.3c0-0.9,0.1-1.8,0.1-2.8
		c-0.1-0.9-0.3-1.8-0.4-2.9C79.7,40.6,80.4,40.6,81.2,41.6z"/>
	<path class="st0" d="M40.5,41.5c0.8-0.3,1.4-0.6,2-0.7c0.8,0,1.2,0.8,0.9,1.4c-0.2,0.5-0.6,0.7-1.2,0.4c-0.8-0.5-1.3-0.3-1.6,0.5
		c-0.1,0.4-0.2,0.9-0.2,1.3c0,1.2,0,2.4,0,3.8c-0.4,0-0.8,0-1.2,0.1c-0.6,0-0.8-0.3-0.8-0.8c0.1-1.1,0.1-2.3,0.1-3.4
		c0-0.8-0.3-1.7-0.4-2.7C38.9,40.6,39.8,40.6,40.5,41.5z"/>
	<path class="st0" d="M30.1,48.1c-1.4,0.3-1.5,0.2-1.5-1c0-1,0.1-2.1,0-3.1c0-0.8-0.2-1.7-0.4-2.6c1-0.7,1.6-0.5,1.9,0.6
		c0.5-0.3,1.1-0.7,1.7-0.9c0.3-0.1,0.8,0.1,1.1,0.3c0.2,0.2,0.1,0.7,0,1c-0.1,0.2-0.6,0.2-0.9,0.2c-1-0.3-1.4-0.2-1.6,0.7
		c-0.2,1.1-0.3,2.3-0.3,3.4C30,47.2,30,47.7,30.1,48.1z"/>
	<path class="st0" d="M145,48.3c-0.5,0-1,0-1.4,0c-0.5-2.3,0.5-4.6-0.7-6.8c1.1-0.8,1.7-0.6,2.1,0.6c0.3-0.3,0.5-0.6,0.8-0.7
		c0.5-0.2,1.1-0.3,1.6-0.3c0.5,0,0.8,0.6,0.5,1c-0.1,0.2-0.7,0.5-0.9,0.4c-1.1-0.3-1.6-0.2-1.8,0.9c-0.2,1.2-0.2,2.5-0.3,3.7
		C144.9,47.5,144.9,47.8,145,48.3z"/>
	<path class="st0" d="M77.8,27.1c1.1,0,2,0.9,2,1.9c0,1.1-0.9,2.1-2,2.1c-1,0-2-0.9-2-2C75.8,28.1,76.7,27.2,77.8,27.1z"/>
	<path class="st0" d="M18.6,27.1c1.1,0,2,0.8,2,1.9c0,1.1-0.9,2-1.9,2c-1.1,0-2-0.9-2-1.9C16.6,28.1,17.5,27.2,18.6,27.1z"/>
	<path class="st0" d="M118.8,41.3c1.2-0.7,1.9-0.4,1.9,1.1c0,1.9,0,3.8,0,5.7c-1.4,0.4-1.6,0.2-1.6-0.9c0-1.1,0.1-2.2,0.1-3.3
		C119.1,43.1,118.9,42.3,118.8,41.3z"/>
	<path class="st0" d="M150.7,48.3c-0.6,0-1,0-1.4,0c-0.5-2.3,0.6-4.6-0.6-6.8c0.4-0.5,1.1-0.6,1.6-0.3c0.3,0.2,0.4,0.9,0.5,1.3
		C150.7,44.4,150.7,46.2,150.7,48.3z"/>
	<path class="st0" d="M119.7,38c0.4,0.5,0.8,0.8,0.8,1.1c0.1,0.5-0.3,0.9-0.8,0.8c-0.3-0.1-0.7-0.5-0.7-0.8
		C119,38.9,119.4,38.6,119.7,38z"/>
	<path class="st0" d="M151,39.2c-0.5,0.4-0.9,0.8-1.1,0.7c-0.3-0.1-0.5-0.5-0.8-0.8c0.3-0.2,0.6-0.6,0.9-0.6
		C150.2,38.4,150.5,38.8,151,39.2z"/>
</g>
</svg>
